PathFileType	4	(X/Y/Z)	RBDS08\RBDS08runT45.trc
DataRate	CameraRate	NumFrames	NumMarkers	Units	OrigDataRate	OrigDataStartFrame	OrigNumFrames
150.000000	150.000000	5	33	mm	150.000000	1125	4500
Frame#	Time	L.ASIS			L.Heel.Bottom			L.Heel.Lateral			L.Heel.Top			L.Iliac.Crest			L.MT1			L.MT5			L.PSIS			L.Shank.Bottom.Lateral			L.Shank.Bottom.Medial			L.Shank.Top.Lateral			L.Shank.Top.Medial			L.Thigh.Bottom.Lateral			L.Thigh.Bottom.Medial			L.Thigh.Top.Lateral			L.Thigh.Top.Medial			R.ASIS			R.ASY			R.Heel.Bottom			R.Heel.Lateral			R.Heel.Top			R.Iliac.Crest			R.MT1			R.MT5			R.PSIS			R.Shank.Bottom.Lateral			R.Shank.Bottom.Medial			R.Shank.Top.Lateral			R.Shank.Top.Medial			R.Thigh.Bottom.Lateral			R.Thigh.Bottom.Medial			R.Thigh.Top.Lateral			R.Thigh.Top.Medial			
		X1	Y1	Z1	X2	Y2	Z2	X3	Y3	Z3	X4	Y4	Z4	X5	Y5	Z5	X6	Y6	Z6	X7	Y7	Z7	X8	Y8	Z8	X9	Y9	Z9	X10	Y10	Z10	X11	Y11	Z11	X12	Y12	Z12	X13	Y13	Z13	X14	Y14	Z14	X15	Y15	Z15	X16	Y16	Z16	X17	Y17	Z17	X18	Y18	Z18	X19	Y19	Z19	X20	Y20	Z20	X21	Y21	Z21	X22	Y22	Z22	X23	Y23	Z23	X24	Y24	Z24	X25	Y25	Z25	X26	Y26	Z26	X27	Y27	Z27	X28	Y28	Z28	X29	Y29	Z29	X30	Y30	Z30	X31	Y31	Z31	X32	Y32	Z32	X33	Y33	Z33	

1126	7.500000000000001	2240.805949151869	989.2127566809381	873.8576272694662	1558.869858659122	249.3988900972481	979.4438715287597	1579.378185535053	228.09768251709	932.0923097058733	1605.995305563006	264.5350529547461	971.2758184026791	2212.206564269884	1073.377148827506	852.1337802800296	1695.935366887272	71.3928348405813	1008.06204914508	1638.958952433394	86.85222901409344	913.3149123828942	2082.727921098829	1053.652364973899	942.384771146826	1680.172405164217	281.6406005538624	907.6487691217948	1655.519749521422	303.704642093458	947.1244582548118	1718.470317202754	350.7871369287211	888.594273419156	1698.519997213878	375.2425064596176	931.6641451372483	1982.779342874152	672.1468987334196	831.886119197256	1929.697208207664	699.4903968328898	874.5490956523093	2022.192624468433	774.7651277075795	818.739262060197	1976.08335059646	799.2743822004963	865.4198362121791	2253.724909950878	1005.959445046817	1093.923472603328	24883077.42176066	-22000894.70723333	-2228249.722060639	2078.716080051725	350.3433418231765	1022.166126094161	2107.53911704705	350.896135253693	1065.439916413689	2114.488849427636	385.3761394657602	1021.066747522951	2200.21967780137	1081.632728531268	1133.936442635418	2278.714981274008	241.28134071486	1002.093252272624	2238.699532896875	257.9588450048518	1103.228356251732	2084.520119863018	1057.703377897926	1045.139607981372	2222.091596201058	446.4061235923556	1076.826736538839	2207.14208104242	464.612769207246	1027.548219835183	2268.37851159698	513.4032742123513	1084.312619394214	2255.524396118625	528.3446592074974	1034.583887810886	2417.345139164049	730.4961121538299	1132.835208346037	2377.559145850871	684.3827617358356	1092.865283400163	2325.31937222794	788.1452195135095	1156.885178924173	2287.961871906455	742.596616010355	1121.671267501204	
1127	7.506666666666667	2242.890957869874	991.2521227194792	874.5405399284152	1550.623376930811	268.7214050494771	983.2988246406903	1567.465715315801	245.5599819395799	934.9816850442718	1598.562185813731	280.5017284863775	972.7318030242383	2215.072252111867	1075.798915180649	852.5396280622986	1676.901090856838	80.31447117815743	1005.795671647387	1616.563545284224	98.34779169295048	913.9779705970894	2084.884640590405	1056.748927715538	941.9434889182705	1668.641726911291	293.9084140228754	907.3163948062985	1645.671979658628	315.4846264220602	948.2425861597417	1707.873877308376	362.675916177306	888.7637711469314	1689.58580616725	386.5274330258382	933.0847910033751	1979.310706209335	678.8776039703677	832.0254630677088	1926.871809028208	707.1096904160652	874.9394068827464	2020.712095976219	780.6572170538329	818.9161499313634	1975.673684846277	805.8971048907483	866.130424126069	2254.845177397474	1008.671190719776	1094.094597278702	25044410.4695868	-22144145.68519001	-2242949.441670881	2104.430771733314	324.0258076638961	1016.731564195032	2131.888334771441	327.2895388951662	1060.614080893713	2137.37813401082	361.7577724135231	1015.798223849259	2201.408707262664	1084.923023987895	1134.241757785885	2312.820328176112	230.6043979473594	1003.579576088952	2268.988666384897	245.2500835341067	1103.073451495333	2086.344735098185	1061.056976264228	1044.895492745467	2239.07277469689	431.8925131964724	1073.304957019355	2224.414294470986	448.140811800651	1023.203218037812	2280.385613564443	502.080179388921	1080.569744528349	2268.102605701111	515.2011301315703	1030.147360097698	2419.724201885437	735.9300636942754	1132.161675930669	2379.450737372262	688.3964572382932	1094.143674527038	2327.6126179495	793.2256904236174	1156.563726788816	2289.909607109757	746.644734737704	1123.073691922403	
1128	7.513333333333334	2244.60429588553	993.2596986444239	875.1967701653255	1542.249798917972	287.8607624406199	986.6095257067233	1555.837074530329	263.3184081495864	937.4333334278282	1590.774215417143	296.6463100927165	974.0296492856627	2217.420961311112	1078.021987076189	852.8926793796998	1658.503761961845	90.81233607045947	1003.671182941179	1595.547393780803	111.4533161914507	914.390655629019	2086.644209424694	1059.681266293085	941.699901932168	1657.75286967097	306.4485325440569	907.1100970632843	1636.344779281603	327.8896365571617	949.0860031509953	1698.433607855633	374.4247773036134	888.9150792592286	1681.696187058433	397.9910637363147	934.1488501756719	1976.929723319224	684.5130752348364	832.2862425887231	1925.0727852124	713.2946606425115	875.548662188159	2019.64085212925	785.6659874986574	819.2060119321782	1975.597073892748	811.3402333010561	867.0212491734002	2255.597649462691	1010.820869768048	1094.349645513673	25206439.36780363	-22288017.02942741	-2257713.624755037	2130.943120522111	298.3217446865816	1011.089757700178	2156.709104321598	304.1780441991969	1055.632068536502	2160.941764952197	338.4798079878487	1010.333855201056	2202.423175084426	1087.566899610271	1134.709501201053	2346.37875464014	220.7716337499626	1005.312943026303	2298.681544926621	233.2285123570171	1103.094011978422	2087.872640334996	1063.979191213092	1044.818012672074	2256.065340113315	416.9654989585571	1069.727330999459	2241.932347526763	431.451455638343	1018.830273120725	2292.292042902033	489.9069609862675	1076.831413702142	2280.833649424782	501.4000311101778	1025.734983307543	2421.33564893083	739.7529574822837	1131.617008293163	2380.514766268683	691.0275310508318	1095.430036577955	2329.397590919318	797.08282498449	1156.273616897263	2291.19981378524	749.6574493477026	1124.446280120139	
1129	7.52	2245.936232186527	995.2491251833635	875.7692138978199	1533.488370753993	306.7992458331114	989.1056485854727	1544.452011560706	281.3175358423019	939.2374948567802	1582.432338874735	312.9978857766596	975.0821451910554	2219.246959254088	1080.065561539273	853.2042686679758	1640.651233507479	102.8298978301564	1001.835970902519	1576.091572006952	126.0509629713314	914.4687158198473	2087.986870491173	1062.414102889551	941.6571098938551	1647.497116882466	319.2685750964457	907.045223315954	1627.480121289303	340.97066298483	949.6257608011047	1690.133729827049	386.0030200834094	889.0541334585578	1674.794193291263	409.6459813917582	934.830236794253	1975.636418137619	688.8914338698999	832.6753200158345	1924.270250711849	717.9163595390011	876.3508675070375	2019.008694756934	789.6528306532438	819.5983698881201	1975.805966166135	815.5019563019673	868.0134391101303	2256.00183547863	1012.487605672205	1094.620820218872	25369165.61374526	-22432510.08012501	-2272542.412324469	2157.966330304074	273.3217878915857	1005.457654114706	2181.813355272561	281.5925242696406	1050.672541088752	2184.907284424035	315.6319857987694	1004.896326609162	2203.256679769283	1089.570251863449	1135.337468315555	2379.096825820433	211.8138733100834	1007.020054451194	2327.675703709846	221.8328949423065	1103.136805236567	2089.092530236254	1066.447406090604	1044.907767134494	2272.948654646765	401.6454333602197	1066.209555146329	2259.450846214853	414.6153999740699	1014.588824465951	2304.013138899052	476.9087166609436	1073.254126552517	2293.505445151776	487.0191137906241	1021.538717263791	2422.116501810229	741.816714879294	1131.213233239522	2380.689981719835	692.2304546628243	1096.601261354745	2330.608623140137	799.578922830089	1156.035488630767	2291.791449074194	751.5816621600566	1125.665683101657	
1130	7.526666666666667	2246.896509831139	997.221779547857	876.2041794796276	1524.262895064372	325.5910912273925	990.5638736447225	1533.383598870744	299.5291876547033	940.2221070730636	1573.521919859965	329.6072647644169	975.8008433183011	2220.542513946862	1081.959739301049	853.4843991929489	1623.283234117978	116.2740074042967	1000.40482573928	1558.332891225407	141.9705865270364	914.1553921856879	2088.914668110627	1064.90611886937	941.8065101949846	1637.92844589206	332.3682438780248	907.1108730426781	1619.106045565325	354.7344754212097	949.8459078754694	1682.98365300294	397.3957633415654	889.1822881757569	1668.864937956594	421.4890963637613	935.1273871773014	1975.419380566924	691.9080171469108	833.189494579029	1924.424273664239	720.9134609123327	877.2982977914963	2018.860258405938	792.5172517130349	820.0721989005809	1976.277236416184	818.326472522454	869.015904292771	2256.094463421918	1013.768484445371	1094.843123302026	25532590.70474584	-22577626.17746226	-2287435.945390545	2185.208316080227	249.1081299797855	1000.075613143856	2207.029415557286	259.5691616100993	1045.934308640564	2208.989463692285	293.2947942905396	999.7304931853377	2203.890768985569	1090.961119956128	1136.106402220706	2410.670173372837	203.7716589362525	1008.401720847574	2355.90753032565	211.0332613571621	1103.027595207854	2090.012884718753	1068.446517611013	1045.149449449503	2289.616121892608	385.9870857828838	1062.883250153254	2276.716575365469	397.7091911939725	1010.657404506255	2315.478117992386	463.1476443149486	1070.007026288805	2305.893043682929	472.146577800149	1017.765469689385	2421.996655437349	742.0130284421519	1130.942505729342	2379.90726280873	691.9862699057136	1097.530510513478	2331.164345686207	800.5985661363931	1155.854047283305	2291.632224910513	752.3711391925376	1126.606565598865	
